<svg height="734" width="720" xmlns="http://www.w3.org/2000/svg">
<rect height="734" fill="#555" width="720"></rect>
<text fill="#7f7" font-family="Courier New" font-size="12" xml:space="preserve">
<tspan x="10" y="26"></tspan>

<tspan x="10" y="42">[MODE_BUILD=buildApp] - 2018-04-21T19:23:55.058Z - npm-testing /home/travis/build/kaizhu256/node\</tspan>
<tspan x="10" y="58">-swgg-github-users</tspan>

<tspan x="10" y="74"></tspan>

<tspan x="10" y="90"></tspan>

<tspan x="10" y="106">buildApp - merged test-report from file /home/travis/build/kaizhu256/node-swgg-github-users/tmp/\</tspan>
<tspan x="10" y="122">build/test-report.json</tspan>

<tspan x="10" y="138">override assets assets.swgg.swagger.json</tspan>

<tspan x="10" y="154">&gt; server listening on http-port 33549</tspan>

<tspan x="10" y="170">&gt; server listening on http-port 36628</tspan>

<tspan x="10" y="186">[node test-case 1 of 1 passed] - testCase_buildApp_default</tspan>

<tspan x="10" y="202"></tspan>

<tspan x="10" y="218">buildApp - merged test-report from file /home/travis/build/kaizhu256/node-swgg-github-users/tmp/\</tspan>
<tspan x="10" y="234">build/test-report.json</tspan>

<tspan x="10" y="250"></tspan>

<tspan x="10" y="266">-------------------------------------------------------</tspan>

<tspan x="10" y="282">| test-report - buildApidoc - node - linux v9.11.1 - 2018-04-21T19:23:00.794Z</tspan>

<tspan x="10" y="298">|   60367 ms            0 failed        1 passed      |</tspan>

<tspan x="10" y="314">-------------------------------------------------------</tspan>

<tspan x="10" y="330">| test-report - npmTest - browser - /index.default.html - Mozilla/5.0 (X11; Linux x86_64) AppleW\</tspan>
<tspan x="10" y="346">ebKit/537.36 (KHTML, like Gecko) Chrome/58.0.3029.110 Electron/1.7.13 Safari/537.36 - 2018-04-21\</tspan>
<tspan x="10" y="362">T19:22:43.268Z</tspan>

<tspan x="10" y="378">|      13 ms            0 failed        8 passed      |</tspan>

<tspan x="10" y="394">-------------------------------------------------------</tspan>

<tspan x="10" y="410">| test-report - npmTest - node - linux v9.11.1 - 2018-04-21T19:22:41.044Z</tspan>

<tspan x="10" y="426">|   16806 ms            0 failed        8 passed      |</tspan>

<tspan x="10" y="442">-------------------------------------------------------</tspan>

<tspan x="10" y="458">| test-report - npmTestPublished - browser - /index.default.html - Mozilla/5.0 (X11; Linux x86_6\</tspan>
<tspan x="10" y="474">4) AppleWebKit/537.36 (KHTML, like Gecko) Chrome/58.0.3029.110 Electron/1.7.13 Safari/537.36 - 2\</tspan>
<tspan x="10" y="490">018-04-21T19:21:36.682Z</tspan>

<tspan x="10" y="506">|      29 ms            0 failed        8 passed      |</tspan>

<tspan x="10" y="522">-------------------------------------------------------</tspan>

<tspan x="10" y="538">| test-report - npmTestPublished - node - linux v9.11.1 - 2018-04-21T19:21:33.718Z</tspan>

<tspan x="10" y="554">|   17470 ms            0 failed        8 passed      |</tspan>

<tspan x="10" y="570">-------------------------------------------------------</tspan>

<tspan x="10" y="586"></tspan>

<tspan x="10" y="602">created test-report file /home/travis/build/kaizhu256/node-swgg-github-users/tmp/build/test-repo\</tspan>
<tspan x="10" y="618">rt.html</tspan>

<tspan x="10" y="634"></tspan>

<tspan x="10" y="650"></tspan>

<tspan x="10" y="666">buildApp - 0 failed tests</tspan>

<tspan x="10" y="682"></tspan>

<tspan x="10" y="698"></tspan>

<tspan x="10" y="714">[MODE_BUILD=buildApp] - 2018-04-21T19:24:02.669Z - EXIT_CODE - 0</tspan>

</text>
</svg>
